<svg width="46" height="119" viewBox="0 0 46 119" fill="none" xmlns="http://www.w3.org/2000/svg">
<path d="M23.8061 75.6002C23.9468 75.7402 24.0874 75.7402 24.2281 75.8801C24.65 76.1601 24.9313 76.3001 25.3533 76.5801C25.4939 76.72 25.7752 76.86 25.9159 77C25.9159 77 25.9159 77 26.0565 77.14C26.7598 77.56 27.3224 78.1199 28.0257 78.6798C31.6826 81.7595 38.5745 85.6791 42.3721 88.6187C43.7786 89.7386 44.9038 87.4989 45.7477 85.959C46.7323 84.1392 44.6225 82.3194 43.0754 81.1996C40.8249 79.5197 38.4339 77.9799 36.1834 76.3001C34.7769 75.3202 33.7924 74.3403 32.1045 73.0805C30.4167 71.6806 28.7289 70.4207 26.9004 69.4408C26.0565 69.0209 25.072 68.461 24.0874 68.321C24.0874 67.2011 23.3842 67.621 23.9468 61.8817C24.2281 58.802 24.65 56.9822 24.65 53.7626C26.4785 53.7626 28.4476 54.1825 30.2761 54.7425C31.4013 55.0224 32.5265 55.3024 33.6517 55.5824C34.0737 55.7224 34.4956 55.8623 34.9176 55.8623C36.3241 56.1423 37.8713 56.2823 39.2778 56.1423C41.9502 56.0023 42.2315 54.7425 40.9656 52.2228C39.2778 49.0031 38.1526 46.4834 36.1834 43.5437C34.2143 39.9041 32.3859 34.8647 30.9793 31.0851C29.4322 27.3055 28.5883 23.2459 27.6037 19.3264C26.7598 16.1067 24.7907 12.6071 25.072 9.1075C25.2126 7.42768 23.6655 0.288467 21.9776 0.00849796C20.1492 -0.271471 18.8833 6.44779 18.1801 8.1276C16.7735 11.4872 16.6329 15.1268 15.5077 18.6264C14.3825 22.546 12.554 26.1856 11.1475 29.9652C9.74096 33.6048 8.33445 36.9644 6.50598 40.3241C4.53686 43.8237 3.69295 48.4432 1.30188 51.6628C-0.526593 54.0425 0.598618 55.3024 2.98969 55.5824C5.94337 56.0023 8.89706 54.6025 11.7101 53.6226C13.6792 52.9227 15.6483 52.7827 17.7581 52.6427C18.1801 56.2823 17.1955 68.461 17.1955 70.0008C17.0548 70.1408 17.0548 70.4207 16.9142 70.5607C16.4922 70.9807 16.0703 71.4006 15.6483 71.6806C15.367 71.8206 14.2418 72.6605 15.367 71.9606C15.0857 72.2405 14.8044 72.3805 14.3825 72.6605C13.8199 73.0805 13.2573 73.5004 12.6946 73.9204C11.2881 74.9003 10.0223 76.0201 8.7564 77.28C7.91249 77.9799 7.20924 78.8198 6.36533 79.5197C6.22468 79.6597 6.08403 79.6597 5.94337 79.7997C6.08403 79.6597 6.22468 79.6597 6.22468 79.5197C6.08402 79.6597 5.66207 79.9397 5.52142 80.0797C5.09946 80.3596 4.67751 80.6396 4.25556 80.7796C2.56774 81.6195 -0.807897 86.9389 0.176664 88.3388C2.28644 91.5584 1.30188 89.8786 7.77184 86.7989C10.0223 85.819 11.8507 83.9993 13.5386 82.3194C14.2418 81.6195 14.9451 80.9196 15.789 80.3596C16.0703 80.0797 16.3516 79.9397 16.6329 79.7997C16.7735 79.7997 16.7735 79.6597 16.9142 79.6597C16.9142 80.7796 16.9142 82.0395 16.7735 83.1593C16.7735 83.5793 16.7735 83.9993 16.7735 84.4192C15.2264 85.3991 13.8199 86.7989 12.554 88.1988C11.8507 89.0387 11.0068 89.7386 10.3036 90.5785C10.1629 90.7185 10.0223 90.8585 9.88162 90.9985C10.4442 90.5785 9.60031 91.2785 9.31901 91.4184C7.77184 92.5383 6.08403 93.6582 4.67751 95.058C2.98969 96.4579 1.44253 98.2777 1.44253 100.377C1.44253 102.197 1.72383 104.017 3.5523 103.877C5.24012 103.737 12.4133 97.4378 13.1166 96.8778C14.3825 96.0379 15.367 95.058 16.4922 93.9382C16.4922 95.8979 16.4922 97.8577 16.6329 99.9575C16.6329 100.097 16.4922 100.097 16.4922 100.237C16.2109 100.517 15.9296 100.937 15.6483 101.217C14.9451 101.917 14.2418 102.617 13.5386 103.317C12.8353 103.877 12.132 104.577 11.4288 105.137C11.1475 105.277 11.0068 105.557 10.7255 105.697L10.5849 105.837C10.0223 106.257 9.60031 106.677 9.03771 107.097C8.05315 107.797 7.06859 108.637 6.22468 109.476C5.52142 110.176 4.95881 111.016 4.25556 111.716C3.69295 112.416 2.98969 112.836 2.56774 113.536C1.02057 116.056 1.72383 119.135 4.53686 118.995C5.94337 118.995 10.4442 115.216 11.1475 114.516C11.8507 113.816 12.554 113.116 13.3979 112.556C13.5386 112.416 13.6792 112.276 13.9605 112.136C14.5231 111.716 15.0857 111.296 15.6483 110.876C17.0548 109.756 18.3207 108.637 19.5866 107.517C20.4305 106.817 21.2744 105.977 21.9776 104.997C22.2589 105.137 22.5403 105.417 22.8216 105.697C23.9468 106.677 24.9313 107.797 26.0565 108.777C29.1509 111.436 33.7924 114.096 37.0274 116.616C38.5745 117.736 39.5591 116.896 40.403 115.356C41.5282 113.536 40.6843 111.716 39.1371 110.596C35.9021 108.217 32.6672 105.557 29.7135 102.757C28.0257 101.077 26.1972 99.2576 23.9468 98.2777C23.9468 95.758 23.8061 93.3782 23.9468 90.8585C23.9468 90.8585 24.0874 90.8585 24.0874 90.9985C24.65 91.2785 25.072 91.6984 25.6346 91.9784C25.7752 91.9784 25.7752 92.1184 25.9159 92.1184C26.1972 92.2583 26.4785 92.5383 26.6191 92.6783C28.4476 94.2181 30.2761 95.618 31.9639 97.2978C33.7924 98.9776 37.168 101.917 39.1371 103.317C39.8404 103.877 40.6843 104.437 41.5282 104.577C43.0754 104.997 43.3567 104.297 44.2006 102.897C44.9038 101.637 44.7632 98.9776 44.2006 97.8577C43.7786 97.0178 42.9347 96.4579 41.9502 96.1779C41.6688 96.0379 41.5282 95.8979 41.2469 95.758C40.6843 95.338 40.1217 94.9181 39.5591 94.4981C39.4184 94.4981 39.4184 94.3581 39.2778 94.3581C39.1371 94.2181 38.8558 94.0781 38.7152 93.7982C38.2932 93.3782 37.7306 92.9583 37.3087 92.5383C36.4647 91.8384 35.6208 91.1385 34.7769 90.4385C33.0891 88.8987 31.2606 87.4989 29.4322 86.099C27.885 84.8392 26.0565 83.7193 24.0874 83.1593V83.0194C23.8061 80.6396 23.8061 78.1199 23.8061 75.6002ZM38.8558 102.057V101.917C38.9965 102.197 38.9965 102.477 39.1371 102.757C38.9965 102.617 38.9965 102.337 38.8558 102.057Z" fill="#BFBDAC"/>
</svg>
