<?xml version="1.0" encoding="utf-8"?>
<!-- Generator: Adobe Illustrator 23.1.0, SVG Export Plug-In . SVG Version: 6.00 Build 0)  -->
<svg version="1.1" id="Layer_1" xmlns="http://www.w3.org/2000/svg" xmlns:xlink="http://www.w3.org/1999/xlink" x="0px" y="0px"
	 viewBox="0 0 190 190" style="enable-background:new 0 0 190 190;" xml:space="preserve">
<style type="text/css">
	.st0{fill:#BFBDAC;}
	.st1{clip-path:url(#SVGID_2_);}
	.st2{fill:#FFFFFF;}
</style>
<path class="st0" d="M126.6,138.6c3.3-3.4,5.4-9.1,2.4-13.6c-1.5-2.3-2.2-5.1-2.1-8.1c0.2-3.3,0.2-6.6,0.3-9.9l0-2.5
	c0-1.1,0-2.2-0.2-3.4c-0.3-2.5-0.6-5-0.8-7.6c-0.3-2.5-0.6-5-0.8-7.4c-0.3-2.6-0.8-4.7-2.5-6.5c-1.7-1.8-3.4-3.9-5.3-6.6
	c-1.4-1.9-3.4-2.9-5.5-3.9c-0.5-0.2-0.9-0.5-1.4-0.7c-0.2-0.1-0.5-0.1-0.7-0.1l-0.3,0c-2-0.2-3.7,0.8-5.4,1.9l-0.3,0.2
	c-0.6,0.4-1.4,0.5-2.1,0.4c-2.6-0.4-5-0.8-7.2,0.8c-0.4,0.3-1.1,0.2-1.5,0c-1.6-0.9-3.4-1-5.8-0.4L87,71.3l-0.3-0.4
	c-0.5-0.8-1-1.5-1.5-2.3c-1.1-1.7-2.1-3.3-3.3-4.7c-2.5-3.1-5.2-6.1-7.7-9c-1.5-1.7-3-3.4-4.4-5.1c-0.8-0.9-1.7-1.4-2.5-1.5
	c-0.7,0-1.4,0.3-2.1,0.9c-1.6,1.5-2.4,3.4-2.6,5.7c-0.2,3.6,1.3,6.6,3.6,10.1c0.5,0.7,1,1.5,1.6,2.2c0.8,1,1.5,2,2.2,3.2
	c2.2,3.7,4.5,7.6,6.5,11.5c2.5,5.1,4.1,9.3,4.8,13.4c0.3,1.6,0.5,3.2,0.8,4.7c0.1,0.7,0.2,1.4,0.3,2.1l0.1,0.6l-1.3,0.4l-0.3-0.2
	c-0.3-0.2-0.5-0.4-0.8-0.5c-1.1-0.7-2.2-1.5-3-2.9c-1.1-2-3-3.5-5.5-4.4c-1.3-0.5-2.6-0.7-3.9-0.7c-1.5,0-3,0.2-4.5,0.4
	c-3,0.4-4.6,3.3-4.6,5.8c0,1.2,0.4,1.8,1.5,2.2c0.9,0.4,1.6,0.7,2.2,1.1c2.7,1.8,4.8,4.3,6.8,6.7c0.4,0.4,0.7,0.9,1.1,1.3
	c1.2,1.4,2.3,2.8,3.3,4.2c2.1,2.7,4.2,5.4,6.7,7.8c5,4.6,9.3,7.3,14,8.5c1.9,0.5,3.5,1.5,4.6,3c0.7,0.9,1.3,2,1.8,3
	c0.5,1,1.4,1.8,2.6,2.2c4,1.4,8.5,2,13.8,1.6C120.3,142,123.8,141.4,126.6,138.6z M111.2,138.9c-1.3,0-2.6-0.1-4-0.2
	c-1.5-0.1-2.6-0.9-3.4-2.2c-0.4-0.7-0.9-1.4-1.5-2.1c-0.2-0.3-0.5-0.6-0.7-0.9l-0.5-0.7l0.8-0.4c0.2-0.1,0.5-0.2,0.7-0.3
	c0.4-0.2,0.9-0.3,1.1-0.5c0.2-0.2,0.4-0.5,0.4-0.7c-0.1-0.1-0.4-0.3-0.7-0.3c-0.6-0.1-1.2-0.2-1.9-0.2c-0.7-0.1-1.5-0.1-2.2-0.3
	c-1-0.2-2-0.5-2.9-0.8c-0.6-0.2-1.3-0.4-1.9-0.5c-0.6-0.1-1.2-0.3-1.8-0.4c-0.6-0.1-1.1-0.2-1.7-0.4c-2.8-0.7-5.3-2.2-7.6-4.8
	c-2.4-2.6-4.7-5.3-7-8c-1.5-1.8-3.1-3.6-4.6-5.3c-1.1-1.2-1.1-2.6-0.1-3.8c0.7-0.8,0.7-1.5,0-2.6c-0.9-1.6-2.4-2.4-3.9-3
	c-0.1,0-0.3,0.1-0.4,0.2c0.1,0.2,0.1,0.4,0.2,0.4c0.3,0.3,0.6,0.5,1,0.8c0.2,0.1,0.4,0.3,0.6,0.4c0.4,0.3,0.9,0.7,1,1.4
	c0.1,0.7-0.3,1.3-0.7,1.9l-0.4,0.5l-2.2-1.4c-1.4-0.9-2.7-1.7-4.1-2.6c-0.4-0.3-0.7-0.8-0.8-1.4c-0.1-0.8,0.2-1.6,0.7-2.2
	c1.6-1.6,3.4-2.1,5.3-1.7c4,0.9,7.1,3.4,9.5,7.6c0.3,0.4,0.7,0.8,1.2,1.2c0.2,0.2,0.5,0.4,0.7,0.6l0.9,0.8c0.9,0.9,1.9,1.8,2.8,2.6
	c0.5,0.5,0.9,0.6,1.1,0.6c0.7,0.1,0.9,0,0.9,0c0,0,0.1-0.1,0.2-0.9l0.1-1.1c0.1-1,0.1-1.9,0.2-2.9c0.2-2.9-0.3-5.6-0.9-8.6
	c-0.2-1.2-0.5-2.4-0.7-3.6c-0.6-4-2.4-7.5-4-10.4c-0.8-1.4-1.5-2.8-2.2-4.1c-1-1.9-2-3.8-3.1-5.6c-1.6-2.7-3.5-5.4-5.8-8.4
	c-2.4-3.2-3.7-6.6-3.9-10.3c-0.1-1.4,0.5-2.5,1.6-3.2c0.9-0.6,1.7-0.4,2.3,0.6c0.5,0.7,1,1.5,1.5,2.2c0.4,0.6,0.9,1.2,1.3,1.9
	c0.3,0.4,0.5,1.3,0,1.8c-0.4,0.3-1,0.6-1.5,0.6c-0.3,0-0.6-0.1-0.8-0.2c-0.1,0-0.2-0.1-0.3-0.1c-0.3,0-0.6,0.1-0.7,0.1
	c0,0.3,0,0.7,0.2,0.9c0.3,0.5,0.9,1,1.8,1.2c1,0.3,2.2,0.2,2.9-0.3c0.1-0.1,0.3-0.2,0.4-0.3l0.9-0.6l1.4,1.9c0.8,1,1.6,2,2.4,3
	c1,1.2,2.1,2.5,3.2,3.6c2.2,2.3,3.3,5.1,4,7.2c0.5,1.6,1.4,3.2,2.2,4.8c0.3,0.6,0.7,1.3,1,1.9c0.1,0.2,0.3,0.4,0.4,0.6
	c0.1,0.1,0.2,0.2,0.3,0.4l0.3,0.4L89.1,83c-0.7,1-0.7,1.4-0.6,1.5c0.1,0.1,0.3,0.4,1.6,0.7c1,0.2,2.1,0.5,3.1,0.8
	c0.6,0.2,1.3,0.4,1.9,0.6c0.3,0.1,0.6,0.1,0.7,0.1c0.1-0.2,0.1-0.5,0.1-0.6c-0.3-0.4-0.8-0.7-1.3-1.1c-0.2-0.2-0.5-0.4-0.7-0.6
	c-0.2-0.2-0.4-0.3-0.5-0.4c-0.5-0.4-1-0.8-1.4-1.4c-1-1.6-1.9-3.3-2.8-5c-0.4-0.6-0.7-1.3-1.1-1.9l-0.3-0.6l0.6-0.4
	c1.3-0.8,3.6-0.4,4.7,0.5c0.5,0.4,1,0.7,1.6,1l0.3,0.2c1.6,1,2.1,2.7,2.5,4.1c0.3,1.1,0.8,1.7,1.9,2.1c0.9,0.3,1.7,0.8,2.4,1.3
	c0.5,0.3,0.9,0.6,1.4,0.8c0.1,0.1,0.4,0.2,0.6,0.2c0.1-0.3,0.2-0.7,0.2-1c0,0-0.1-0.1-0.2-0.3c-0.4-0.6-0.9-1.1-1.4-1.7
	c-0.7-0.9-1.4-1.7-2-2.6c-0.5-0.6-0.8-1.3-1-1.8c-0.3-0.6-0.5-1.3-0.8-1.9l-0.5-1.4l0.5-0.3c2.3-1.3,3.7-1.2,5.4,0.7
	c0.6,0.6,1.2,1.3,1.8,2.1c0.3,0.4,0.7,0.8,1,1.2l0.6,0.7l-0.8,0.4c-0.2,0.1-0.3,0.1-0.4,0.2c-0.1,0-0.2,0.1-0.3,0.1
	c-0.2,0.2-0.3,0.5-0.3,0.8c0.1,0.2,0.3,0.4,0.6,0.5c2.1,0.6,4.1,1.2,6.2,1.8c0.4,0.1,0.6,0.1,0.8,0.1c0.5-0.2,0.7-0.3,0.8-0.4
	c0-0.2-0.2-0.4-0.4-0.6c-0.2-0.2-0.4-0.4-0.7-0.5c-0.3-0.2-0.5-0.3-0.8-0.5l-0.4-0.3c-0.9-0.8-1.9-1.6-2.7-2.5
	c-0.7-0.8-1.4-1.6-2-2.4c-0.3-0.4-0.6-0.7-0.8-1.1l-0.4-0.5l0.4-0.4c0.7-0.8,1.7-1.3,2.7-1.3c1.1,0,2.2,0.5,3.1,1.4
	c0.8,0.8,1.6,1.6,2.5,2.4c1.1,1,2.2,2,3.2,3.2c1.1,1.2,2.1,2.6,3,4c0.4,0.5,0.7,1,1.1,1.5c0.2,0.3,0.3,0.7,0.4,1
	c2.4,10.1,2.1,20.5,1.7,29.4c-0.1,1.5-0.3,3-0.5,4.4c-0.1,0.9-0.2,1.8-0.3,2.6c0,0.2,0.1,0.6,0.2,0.9c0.5,1.1,1.1,2.2,1.6,3.3
	c0.4,0.8,0.8,1.6,1.2,2.4c0.8,1.7,0.5,3.9-0.8,5.7c-1.9,2.6-4.7,3.5-7.1,4.1C116.1,138.6,113.8,138.9,111.2,138.9z"/>
<g>
	<path class="st0" d="M50,15.3c-0.5,0.3-0.9,0.7-0.9,1.3c-0.2,0.6-0.1,1.2,0.2,1.8l5.2,9.5c0.3,0.6,0.7,0.9,1.1,1.1
		c0.4,0.2,0.9,0.2,1.3,0c0.4-0.2,0.7-0.6,0.8-1.1c0.1-0.5,0-1-0.3-1.6l-2.1-3.8c-0.4-0.7-1-0.8-1.9-0.2l-0.4-0.7l4-2.2l0.4,0.7
		c-0.4,0.2-0.5,0.5-0.2,1l3.7,6.6l-0.4,0.2l-0.9-0.4c-0.2,0.9-0.9,1.7-2.1,2.3c-2.4,1.3-4.3,0.6-5.8-2.2L48,20.9
		c-0.8-1.3-1-2.6-0.7-3.6c0.2-1.1,1-1.9,2.3-2.7c0.5-0.3,0.8-0.5,0.9-0.7c0.2-0.2,0.2-0.4,0.2-0.7l0.6-0.4l2.8,3l-0.5,0.5
		c-0.6-0.5-1.1-0.9-1.5-1.1c-0.4-0.2-0.8-0.3-1-0.3C50.7,15,50.4,15.1,50,15.3z"/>
	<path class="st0" d="M61.4,13.9c1.3-0.5,2.4-0.5,3.4,0c1,0.5,1.8,1.5,2.3,2.8l1.2,2.9c1.2,2.9,0.5,4.9-2.1,6
		c-1.3,0.5-2.4,0.6-3.4,0.1c-1-0.5-1.7-1.4-2.3-2.8l-1.2-2.9c-0.6-1.4-0.7-2.7-0.4-3.7C59.2,15.2,60.2,14.4,61.4,13.9z M65.9,24.7
		c0.5-0.2,0.8-0.5,0.9-1c0.1-0.5,0.1-1-0.1-1.6l-2.5-6.2c-0.3-0.6-0.6-1-1.1-1.2c-0.5-0.2-0.9-0.2-1.5-0.1c-0.5,0.2-0.8,0.5-1,1
		c-0.1,0.5-0.1,1.1,0.1,1.6l2.5,6.2c0.3,0.6,0.6,1,1.1,1.2C64.9,24.9,65.4,24.9,65.9,24.7z"/>
	<path class="st0" d="M76.3,21c0.4-0.1,0.8-0.2,1-0.4c0.2-0.2,0.2-0.4,0.1-0.8l-1.9-9.1L75,10.8c-0.4,0.1-0.8,0.2-1.1,0.5
		c-0.2,0.2-0.4,0.5-0.5,1c-0.1,0.5-0.2,1.1-0.3,2l-0.8,0l-0.2-4.3l0.7-0.2c0.1,0.3,0.5,0.5,1.1,0.3l4.7-1c0.6-0.1,0.9-0.4,0.9-0.8
		l0.7-0.2l1.6,4l-0.7,0.3c-0.4-0.8-0.7-1.4-1-1.8c-0.3-0.4-0.6-0.6-0.9-0.7s-0.7-0.1-1.1,0l-0.4,0.1l1.9,9.1c0,0.3,0.3,0.6,0.5,0.7
		c0.2,0.1,0.6,0.1,1.1,0l0.2,0.8l-5,1L76.3,21z"/>
	<path class="st0" d="M87.4,7.7c1.3-0.1,2.4,0.2,3.2,1c0.8,0.8,1.2,1.9,1.4,3.4l0.2,3.1c0.2,3.1-1,4.8-3.9,5.1
		c-1.4,0.1-2.5-0.2-3.2-1c-0.8-0.8-1.2-1.9-1.4-3.4l-0.2-3.1c-0.1-1.6,0.2-2.8,0.8-3.6C84.9,8.3,86,7.9,87.4,7.7z M88.3,19.4
		c0.5,0,1-0.3,1.2-0.7c0.3-0.4,0.4-1,0.4-1.6l-0.5-6.7c-0.1-0.6-0.3-1.1-0.6-1.5c-0.4-0.4-0.8-0.5-1.3-0.5c-0.5,0-0.9,0.2-1.2,0.7
		s-0.4,1-0.4,1.6l0.5,6.7c0.1,0.6,0.2,1.1,0.6,1.5C87.3,19.3,87.8,19.5,88.3,19.4z"/>
	<path class="st0" d="M99.4,19.1c0.4,0,0.8,0,1.1-0.1c0.2-0.1,0.4-0.4,0.4-0.7l0.9-9.2l-0.4-0.1c-0.4,0-0.9,0-1.1,0.1
		c-0.3,0.1-0.6,0.4-0.8,0.8s-0.5,1-0.8,1.8l-0.7-0.3l1.1-4.1l0.7,0.1c0,0.4,0.3,0.6,0.9,0.7l4.8,0.5c0.6,0.1,1-0.1,1.1-0.5l0.7,0.1
		l0.3,4.3l-0.8,0.1c-0.2-0.9-0.3-1.5-0.5-2c-0.1-0.5-0.4-0.8-0.6-0.9c-0.3-0.2-0.6-0.3-1.1-0.3l-0.4,0l-0.9,9.3
		c0,0.3,0.1,0.6,0.2,0.8c0.2,0.2,0.5,0.3,1,0.4l-0.1,0.8l-5-0.5L99.4,19.1z"/>
	<path class="st0" d="M106.9,19.8c0.5,0.1,0.8,0.1,1,0.1c0.2-0.1,0.4-0.3,0.5-0.6l1.9-8.1c0.1-0.3,0-0.6-0.1-0.8
		c-0.2-0.2-0.5-0.4-1-0.4l0.2-0.8l4.9,1.2l-0.2,0.8c-0.5-0.1-0.8-0.1-1-0.1c-0.2,0.1-0.4,0.3-0.5,0.6l-0.9,3.5l3.4,0.8l0.9-3.5
		c0.1-0.3,0.1-0.6-0.1-0.8c-0.2-0.2-0.5-0.4-1-0.4l0.2-0.8l4.8,1.2l-0.2,0.8c-0.5-0.1-0.9-0.1-1.1,0c-0.2,0.1-0.4,0.3-0.5,0.7
		l-1.9,8.1c-0.1,0.3-0.1,0.6,0.1,0.8c0.2,0.2,0.5,0.4,1,0.4l-0.2,0.8l-4.8-1.2l0.2-0.8c0.5,0.1,0.9,0.1,1.1,0s0.4-0.3,0.5-0.7
		l0.9-3.8l-3.4-0.8l-0.9,3.8c-0.1,0.3,0,0.6,0.1,0.8c0.2,0.2,0.5,0.4,1,0.4l-0.2,0.8l-4.9-1.2L106.9,19.8z"/>
	<path class="st0" d="M118,22.6c0.4,0.2,0.8,0.3,1,0.2c0.2-0.1,0.4-0.2,0.5-0.5l3.1-7.8c0.1-0.3,0.1-0.6,0-0.8
		c-0.1-0.2-0.4-0.4-0.9-0.6l0.3-0.7l6,2.4c0.4,0.1,0.6,0.2,0.8,0.2c0.1,0,0.3-0.1,0.4-0.2l0.6,0.3l-0.4,3.7l-0.7-0.1
		c0-0.8,0-1.3-0.1-1.8c-0.1-0.4-0.3-0.8-0.6-1c-0.3-0.3-0.8-0.5-1.3-0.7l-1.5-0.6l-1.8,4.4l1.5,0.6c0.5,0.2,1-0.1,1.2-0.8l0.6,0.3
		l-1.2,3.1l-0.6-0.3c0.3-0.8,0.2-1.3-0.3-1.6l-1.5-0.6l-1.7,4.3l2.1,0.8c0.6,0.2,1.1,0.3,1.5,0.4c0.4,0,0.8-0.2,1.1-0.5
		c0.3-0.3,0.6-0.9,1-1.6l0.6,0.3l-1.5,3.9l-0.7-0.3c0-0.2-0.1-0.4-0.3-0.5c-0.2-0.1-0.5-0.3-1-0.5l-6.7-2.7L118,22.6z"/>
	<path class="st0" d="M130.9,28.1c0.4,0.3,0.7,0.4,1,0.4c0.3,0,0.5-0.2,0.7-0.5l4.4-7.1c0.2-0.3,0.2-0.6,0.1-0.8
		c-0.1-0.2-0.4-0.5-0.8-0.7l0.5-0.7l4.1,2.6c1,0.7,1.7,1.4,2,2.2s0.2,1.6-0.2,2.4c-0.4,0.6-0.8,1-1.1,1.2c-0.4,0.2-0.9,0.3-1.6,0.3
		c0.5,0.6,0.8,1.2,0.8,1.8c0.1,0.6-0.1,1.2-0.5,1.9c-0.6,0.9-1.3,1.4-2.1,1.6c-0.8,0.1-1.8-0.2-3-1l-4.6-2.9L130.9,28.1z M140.4,22
		l-1-0.6l-5.4,8.6l1.5,0.9c0.4,0.3,0.8,0.3,1.2,0.2c0.4-0.1,0.8-0.4,1-0.8l0.7-1.1c0.3-0.5,0.4-0.9,0.3-1.3
		c-0.1-0.4-0.3-0.8-0.8-1.1l-0.7-0.5l0.5-0.7l0.2,0.2c0.5,0.3,0.9,0.4,1.3,0.3c0.4-0.2,0.8-0.5,1.1-1.1l0.5-0.8
		c0.3-0.5,0.4-0.9,0.3-1.3C141.1,22.7,140.9,22.3,140.4,22z"/>
	<path class="st0" d="M139.4,33.5c0.4,0.3,0.7,0.5,0.9,0.5c0.2,0,0.5-0.1,0.7-0.3l5.3-6.5c0.2-0.3,0.3-0.5,0.2-0.8
		c-0.1-0.2-0.3-0.5-0.6-0.8l0.5-0.6l5,4.2c0.3,0.3,0.5,0.4,0.7,0.5c0.2,0,0.3,0,0.4-0.1L153,30l-1.5,3.3l-0.7-0.3
		c0.2-0.7,0.4-1.3,0.4-1.7c0-0.4-0.1-0.8-0.2-1.1c-0.2-0.3-0.6-0.7-1.1-1.1l-1.2-1l-3,3.7l1.2,1c0.4,0.4,0.9,0.2,1.4-0.3l0.5,0.5
		l-2.1,2.6l-0.6-0.5c0.6-0.7,0.6-1.2,0.2-1.6l-1.2-1l-2.9,3.5l1.8,1.5c0.5,0.4,1,0.7,1.3,0.8c0.4,0.1,0.7,0.1,1.2-0.2
		c0.4-0.2,0.9-0.6,1.4-1.2l0.6,0.5l-2.7,3.3l-0.5-0.5c0-0.2,0-0.4-0.1-0.5s-0.4-0.5-0.8-0.8l-5.5-4.6L139.4,33.5z"/>
	<path class="st0" d="M157.9,35.1c0.3,0.3,0.6,0.6,0.7,0.8c0.1,0.2,0.2,0.4,0.3,0.4c0.1,0.1,0.3,0.1,0.4,0l0.5,0.5l-1.9,3.1
		l-0.7-0.4c0.5-1,0.7-1.7,0.7-2.3c0-0.6-0.2-1-0.6-1.5c-0.3-0.3-0.7-0.5-1.2-0.5c-0.4,0-0.8,0.1-1.2,0.4c-0.3,0.3-0.5,0.6-0.5,0.9
		c-0.1,0.3,0,0.8,0.2,1.4l0.7,2.7c0.2,0.7,0.2,1.4,0,2c-0.2,0.7-0.6,1.2-1,1.7c-0.5,0.4-0.9,0.7-1.5,0.7c-0.6,0.1-1.2,0-1.8-0.2
		c-0.6-0.2-1.2-0.6-1.6-1.1c-0.4-0.4-0.7-0.8-0.8-1.1c-0.2-0.3-0.3-0.6-0.3-0.8c-0.1-0.2-0.1-0.3-0.2-0.5c-0.2-0.2-0.5-0.3-0.8-0.2
		l-0.5-0.5l3.2-3l0.5,0.5c-0.7,1-1.1,1.9-1.2,2.6c-0.1,0.8,0.1,1.5,0.6,2.1c0.2,0.2,0.5,0.4,0.9,0.5c0.3,0.1,0.7,0.1,1,0.1
		c0.3,0,0.6-0.2,0.9-0.4c0.5-0.5,0.7-1.4,0.4-2.5l-0.5-2.2c-0.4-1.6-0.1-2.8,0.8-3.7c0.4-0.4,0.9-0.6,1.5-0.7c0.6-0.1,1.2,0,1.8,0.2
		C157,34.3,157.5,34.7,157.9,35.1z"/>
	<path class="st0" d="M154.3,48.1c0.3,0.4,0.6,0.6,0.8,0.7c0.2,0.1,0.5,0,0.8-0.2l7.5-5.5l-0.2-0.3c-0.3-0.4-0.6-0.7-0.9-0.8
		c-0.3-0.1-0.7-0.2-1.1-0.1c-0.4,0.1-1.1,0.3-1.9,0.6l-0.3-0.8l3.9-1.9l0.4,0.6c-0.3,0.2-0.3,0.6,0.1,1.1l2.9,3.9
		c0.4,0.5,0.7,0.6,1,0.5l0.4,0.6l-2.9,3.1l-0.5-0.5c0.5-0.7,0.9-1.2,1.2-1.7c0.2-0.4,0.3-0.8,0.3-1.1c0-0.3-0.2-0.6-0.5-1.1
		l-0.3-0.3l-7.5,5.5c-0.2,0.2-0.4,0.4-0.4,0.7c0,0.2,0.1,0.6,0.4,1l-0.7,0.5l-3-4.1L154.3,48.1z"/>
	<path class="st0" d="M173.2,57.2c0.2,0.5,0.4,0.8,0.5,1.1c0.1,0.2,0.2,0.4,0.5,0.4l0.3,0.7l-2.8,2.4l-0.5-0.6
		c0.5-0.6,0.9-1,1.1-1.4c0.2-0.3,0.4-0.7,0.4-1.1c0-0.4-0.1-0.7-0.3-1.1c-0.3-0.6-0.7-0.9-1.3-1.1c-0.6-0.2-1.2-0.1-1.7,0.2
		l-5.5,2.7c-0.6,0.3-1,0.6-1.2,1.1s-0.2,0.9,0,1.3c0.2,0.5,0.6,0.7,1.1,0.9c0.5,0.1,1,0,1.6-0.3l1.5-0.7c0.7-0.3,0.8-1,0.4-1.9
		l0.7-0.3l1.9,3.9l-0.7,0.3c-0.2-0.4-0.5-0.5-1-0.3l-4.3,2.1l-0.2-0.5l0.5-0.9c-1-0.3-1.6-1-2.1-2c-1.2-2.4-0.4-4.3,2.4-5.7l2.6-1.3
		c1.3-0.6,2.5-0.8,3.7-0.4C171.6,55.1,172.6,55.9,173.2,57.2z"/>
	<path class="st0" d="M166.5,67.6c-0.3,0-0.5,0.1-0.6,0.4c-0.1,0.3,0,0.7,0.1,1.1l-0.8,0.2l-1.2-3.5l0.8-0.2
		c0.1,0.3,0.3,0.6,0.5,0.8c0.2,0.2,0.5,0.2,0.9,0.2l10.7-0.2l0.4,1l-8.6,6.6c-0.3,0.3-0.5,0.4-0.5,0.7c0,0.2,0,0.5,0.1,0.9l-0.8,0.2
		l-1.6-4.8l0.8-0.2c0.4,1,0.8,1.4,1.3,1l1.2-0.9l-1.2-3.4L166.5,67.6z M168.9,67.5l1,2.8l3.9-2.9L168.9,67.5z"/>
	<path class="st0" d="M169.5,76.6l8.2-1.5c0.3,0,0.5-0.2,0.7-0.5c0.1-0.2,0.1-0.6,0-1l0.8-0.1l0.7,3.9l-7.5,4l8.3,0.8l0.7,4
		l-0.8,0.2c-0.1-0.5-0.2-0.8-0.4-1c-0.2-0.2-0.4-0.3-0.8-0.1l-8.3,1.5c-0.3,0-0.6,0.2-0.7,0.4c-0.1,0.2-0.1,0.6,0,1.1l-0.8,0.1
		l-0.9-4.8l0.8-0.1c0.1,0.5,0.2,0.8,0.4,1c0.2,0.2,0.4,0.3,0.8,0.1L179,83l-10.4-1l-0.2-0.9l9.3-5l-8.2,1.5c-0.3,0-0.6,0.2-0.7,0.4
		c-0.1,0.2-0.1,0.6,0,1.1l-0.8,0.1l-0.7-3.6l0.8-0.1c0.1,0.5,0.2,0.8,0.4,1C168.8,76.6,169.1,76.7,169.5,76.6z"/>
	<path class="st0" d="M182,97.2c0,0.4,0,0.8-0.1,1c-0.1,0.3-0.1,0.4,0,0.5c0,0.1,0.1,0.2,0.3,0.3l0,0.7l-3.6,0.8l-0.2-0.8
		c1-0.4,1.7-0.7,2.1-1.1c0.4-0.4,0.6-0.8,0.6-1.5c0-0.4-0.1-0.8-0.5-1.2c-0.3-0.3-0.7-0.5-1.2-0.5c-0.4,0-0.7,0.1-1,0.3
		c-0.3,0.2-0.6,0.6-0.9,1.1l-1.3,2.3c-0.3,0.6-0.8,1.1-1.4,1.5c-0.6,0.3-1.3,0.5-2,0.4c-0.6,0-1.2-0.2-1.7-0.5
		c-0.5-0.4-0.9-0.8-1.2-1.4c-0.3-0.6-0.4-1.2-0.4-2c0-0.6,0.1-1,0.2-1.3c0.1-0.3,0.2-0.6,0.3-0.8c0.1-0.2,0.1-0.4,0.2-0.5
		c0-0.4-0.1-0.6-0.4-0.7l0-0.8l4.4,0.1l0,0.7c-1.2,0.2-2.1,0.5-2.7,1c-0.6,0.5-1,1.1-1,1.9c0,0.4,0.1,0.7,0.3,1
		c0.2,0.3,0.4,0.6,0.7,0.7c0.3,0.2,0.6,0.3,0.9,0.3c0.8,0,1.5-0.5,2-1.5l1.1-1.9c0.8-1.4,1.9-2.1,3.2-2.1c0.6,0,1.1,0.2,1.6,0.6
		c0.5,0.4,0.9,0.8,1.2,1.4C181.8,96,182,96.6,182,97.2z"/>
	<path class="st0" d="M170.6,102c-0.1,0.5,0,0.8,0,1c0.1,0.2,0.4,0.4,0.7,0.4l8.3,1.3c0.3,0,0.6,0,0.8-0.2c0.2-0.2,0.3-0.5,0.4-1
		l0.8,0.1l-0.8,5l-0.8-0.1c0.1-0.5,0-0.8,0-1c-0.1-0.2-0.4-0.4-0.7-0.4l-3.6-0.6l-0.6,3.4l3.6,0.6c0.3,0.1,0.6,0,0.8-0.2
		c0.2-0.2,0.3-0.5,0.4-1l0.8,0.1l-0.7,4.8l-0.8-0.1c0.1-0.5,0.1-0.8,0-1s-0.4-0.4-0.7-0.4l-8.3-1.3c-0.3-0.1-0.6,0-0.8,0.2
		c-0.2,0.2-0.3,0.5-0.4,1l-0.8-0.1l0.7-4.8l0.8,0.1c-0.1,0.5-0.1,0.8,0,1c0.1,0.2,0.4,0.4,0.7,0.4l3.8,0.6l0.6-3.4l-3.8-0.6
		c-0.3,0-0.6,0-0.8,0.2c-0.2,0.2-0.3,0.5-0.4,1l-0.8-0.1l0.8-5L170.6,102z"/>
	<path class="st0" d="M178.3,121.1c-0.4,1.3-1.1,2.2-2.1,2.6c-1,0.4-2.2,0.5-3.6,0l-3-0.9c-3-1-4.1-2.7-3.3-5.4
		c0.4-1.3,1.1-2.2,2.1-2.7c1-0.5,2.2-0.5,3.7,0l3,0.9c1.5,0.5,2.5,1.2,3,2.1C178.6,118.7,178.7,119.8,178.3,121.1z M167,117.7
		c-0.1,0.5-0.1,1,0.2,1.4c0.2,0.4,0.7,0.7,1.3,0.9l6.3,1.9c0.6,0.2,1.2,0.2,1.6,0c0.5-0.2,0.8-0.5,0.9-1c0.1-0.5,0.1-1-0.2-1.4
		c-0.3-0.5-0.7-0.8-1.3-0.9l-6.3-1.9c-0.6-0.2-1.2-0.2-1.6,0C167.5,116.8,167.2,117.1,167,117.7z"/>
	<path class="st0" d="M165.8,122.8c-0.2,0.4-0.3,0.8-0.2,1c0.1,0.2,0.2,0.4,0.6,0.6l7.6,3.5c0.3,0.1,0.6,0.2,0.8,0
		c0.2-0.1,0.4-0.4,0.6-0.9l0.8,0.3l-2.1,4.8c-0.6,1.2-1.2,2-2.1,2.3c-0.8,0.3-1.9,0.2-3-0.3c-1.2-0.5-1.9-1.2-2.2-2
		c-0.3-0.8-0.2-1.9,0.4-3.1l0.3-0.5l0.8,0.3l-0.3,0.5c-0.2,0.4-0.2,0.9,0.1,1.3c0.2,0.4,0.7,0.8,1.2,1.1l1.4,0.7
		c0.6,0.3,1.1,0.3,1.6,0.2c0.5-0.1,0.8-0.4,1-0.8l0.6-1.3l-8.4-3.9c-0.3-0.1-0.6-0.2-0.8,0c-0.2,0.1-0.4,0.4-0.6,0.9l-0.8-0.3
		l2.1-4.6L165.8,122.8z"/>
	<path class="st0" d="M159,146.5l1.3,1.1l-5.8,6.6l-1.3-1.1L159,146.5z"/>
	<path class="st0" d="M141.7,173.6c0.5-0.3,0.8-0.7,0.9-1.4c0.1-0.6,0-1.2-0.3-1.7l-5.6-9.2c-0.3-0.6-0.7-0.9-1.2-1.1
		s-0.9-0.1-1.3,0.1c-0.4,0.2-0.7,0.7-0.8,1.1c-0.1,0.5,0.1,1,0.4,1.5l2.3,3.7c0.4,0.7,1.1,0.7,1.9,0.2l0.4,0.7l-3.9,2.4l-0.4-0.7
		c0.4-0.2,0.5-0.5,0.2-1l-3.9-6.5l0.4-0.2l0.9,0.4c0.2-1,0.8-1.8,1.9-2.4c2.3-1.4,4.3-0.8,5.9,1.9l3.9,6.5c0.8,1.3,1.1,2.5,0.9,3.6
		c-0.2,1.1-1,2-2.2,2.7c-0.5,0.3-0.8,0.5-0.9,0.7c-0.1,0.2-0.2,0.4-0.2,0.7l-0.6,0.4l-2.9-2.9l0.5-0.6c0.6,0.5,1.1,0.8,1.5,1
		c0.4,0.2,0.7,0.3,1,0.3C141,173.9,141.4,173.9,141.7,173.6z"/>
	<path class="st0" d="M130.2,175.5c-1.2,0.6-2.3,0.6-3.4,0.2c-1-0.5-1.8-1.3-2.4-2.7l-1.3-2.9c-1.3-2.9-0.6-4.9,2-6
		c1.2-0.6,2.4-0.6,3.4-0.2c1,0.4,1.8,1.4,2.4,2.8l1.3,2.9c0.6,1.4,0.8,2.7,0.4,3.7C132.3,174.1,131.5,174.9,130.2,175.5z
		 M125.5,164.7c-0.5,0.2-0.8,0.6-0.9,1c-0.2,0.4-0.1,1.1,0.2,1.6l2.7,6.1c0.3,0.6,0.6,1,1.1,1.2c0.5,0.2,1,0.2,1.4,0
		c0.5-0.2,0.8-0.6,0.9-1.1c0.1-0.5,0.1-1.1-0.2-1.6l-2.7-6.1c-0.3-0.6-0.6-1-1.1-1.2C126.5,164.5,126,164.5,125.5,164.7z"/>
	<path class="st0" d="M115.2,168.8c-0.4,0.1-0.8,0.2-0.9,0.5c-0.2,0.2-0.2,0.5-0.1,0.8l2.2,9l0.4-0.1c0.4-0.1,0.8-0.3,1.1-0.5
		c0.2-0.2,0.4-0.5,0.5-1c0.1-0.5,0.1-1.1,0.2-2l0.8,0l0.3,4.3l-0.7,0.2c-0.1-0.3-0.5-0.5-1.1-0.3l-4.6,1.1c-0.6,0.1-0.9,0.4-0.9,0.8
		l-0.7,0.2l-1.7-4l0.7-0.4c0.4,0.7,0.8,1.3,1.1,1.7s0.6,0.6,0.9,0.7c0.3,0.1,0.7,0,1.2,0l0.4-0.1l-2.2-9c0-0.3-0.3-0.6-0.5-0.6
		c-0.3-0.1-0.6-0.1-1,0l-0.2-0.8l4.9-1.2L115.2,168.8z"/>
	<path class="st0" d="M104.5,182.4c-1.3,0.1-2.4-0.2-3.3-0.9c-0.8-0.7-1.3-1.8-1.5-3.3l-0.4-3.1c-0.3-3.1,0.9-4.8,3.7-5.2
		c1.4-0.2,2.5,0.1,3.3,0.9c0.8,0.7,1.3,1.8,1.5,3.4l0.4,3.1c0.2,1.5,0,2.8-0.7,3.6C107,181.8,105.9,182.3,104.5,182.4z M103.2,170.8
		c-0.5,0.1-0.9,0.3-1.2,0.7c-0.3,0.5-0.4,0.9-0.3,1.5l0.8,6.6c0.1,0.6,0.3,1.1,0.7,1.4c0.4,0.4,0.9,0.5,1.4,0.4
		c0.5-0.1,0.9-0.3,1.2-0.8c0.3-0.5,0.4-1,0.4-1.6l-0.8-6.6c-0.1-0.6-0.3-1.1-0.7-1.4C104.2,170.8,103.8,170.7,103.2,170.8z"/>
	<path class="st0" d="M92.2,171.5c-0.4,0-0.8,0-1,0.2c-0.2,0.1-0.4,0.4-0.4,0.7l-0.6,9.3l0.4,0c0.4,0,0.9,0,1.1-0.1
		c0.3-0.1,0.6-0.4,0.8-0.8c0.2-0.4,0.5-1,0.8-1.9l0.7,0.3l-1,4.2l-0.7,0c0-0.4-0.3-0.6-1-0.6l-4.8-0.4c-0.7,0-1,0.1-1,0.5l-0.7,0
		l-0.5-4.3l0.8-0.2c0.2,0.9,0.4,1.5,0.5,2c0.2,0.5,0.4,0.8,0.7,0.9c0.3,0.2,0.6,0.3,1.1,0.3l0.4,0l0.6-9.3c0-0.4-0.1-0.6-0.3-0.8
		c-0.2-0.2-0.5-0.3-1-0.3l0-0.8l5.1,0.3L92.2,171.5z"/>
	<path class="st0" d="M84.7,171c-0.5-0.1-0.8-0.1-1,0c-0.2,0.1-0.4,0.3-0.5,0.7l-1.7,8.2c-0.1,0.3,0,0.6,0.2,0.8
		c0.2,0.2,0.5,0.4,1,0.4l-0.2,0.8l-5-1l0.2-0.8c0.5,0.1,0.8,0.1,1,0c0.2-0.1,0.4-0.3,0.5-0.7l0.7-3.5l-3.4-0.7l-0.7,3.5
		c-0.1,0.3,0,0.6,0.1,0.8c0.1,0.2,0.5,0.3,1,0.4l-0.2,0.8l-4.8-1L72,179c0.5,0.1,0.8,0.1,1.1,0c0.2-0.1,0.4-0.4,0.5-0.7l1.7-8.2
		c0.1-0.3,0-0.6-0.1-0.8c-0.1-0.2-0.5-0.3-1-0.4l0.2-0.8l4.8,1l-0.2,0.8c-0.5-0.1-0.8-0.1-1.1,0c-0.2,0.1-0.4,0.4-0.5,0.7l-0.8,3.8
		L80,175l0.8-3.8c0.1-0.3,0-0.6-0.2-0.8c-0.2-0.2-0.5-0.4-1-0.4l0.2-0.8l5,1L84.7,171z"/>
	<path class="st0" d="M73.4,168.6c-0.4-0.2-0.8-0.2-1-0.1c-0.2,0.1-0.4,0.2-0.5,0.6l-2.8,7.9c-0.1,0.3-0.1,0.6,0.1,0.8
		c0.1,0.2,0.4,0.4,0.9,0.6l-0.3,0.8l-6.1-2.2c-0.4-0.1-0.6-0.2-0.8-0.2s-0.3,0.1-0.4,0.2l-0.7-0.2l0.3-3.7l0.7,0.1
		c0,0.8,0.1,1.4,0.2,1.8c0.1,0.4,0.3,0.8,0.6,1c0.3,0.2,0.8,0.5,1.4,0.7l1.5,0.5l1.6-4.5l-1.5-0.5c-0.5-0.2-1,0.1-1.2,0.8l-0.6-0.3
		l1.1-3.1l0.6,0.3c-0.3,0.8-0.2,1.4,0.3,1.6l1.5,0.5l1.5-4.3l-2.2-0.8c-0.6-0.2-1.1-0.3-1.5-0.3c-0.4,0-0.7,0.2-1,0.5
		c-0.3,0.3-0.6,0.9-1,1.6l-0.7-0.2l1.4-4l0.7,0.2c0,0.2,0.1,0.4,0.3,0.5c0.2,0.1,0.5,0.3,1,0.5l6.8,2.4L73.4,168.6z"/>
	<path class="st0" d="M60.5,163.5c-0.4-0.3-0.8-0.3-1-0.4c-0.3,0-0.5,0.2-0.6,0.5l-4.2,7.3c-0.2,0.3-0.2,0.5-0.1,0.8
		c0.1,0.2,0.3,0.4,0.8,0.7l-0.4,0.7l-4.2-2.4c-1.1-0.6-1.8-1.3-2.1-2.1c-0.3-0.8-0.3-1.6,0.2-2.4c0.3-0.6,0.7-1,1-1.2
		c0.4-0.2,0.9-0.4,1.6-0.3c-0.5-0.6-0.8-1.2-0.8-1.8c-0.1-0.6,0.1-1.2,0.5-1.8c0.6-1,1.3-1.5,2.1-1.6c0.8-0.1,1.8,0.1,3,0.8l4.7,2.8
		L60.5,163.5z M51.1,169.8l1.1,0.6l5.1-8.8l-1.5-0.8c-0.4-0.3-0.8-0.3-1.2-0.2c-0.4,0.1-0.7,0.4-1,0.9l-0.7,1.2
		c-0.3,0.5-0.4,0.9-0.3,1.4c0.1,0.4,0.3,0.7,0.8,1l0.7,0.4l-0.4,0.7l-0.3-0.1c-0.5-0.3-0.9-0.3-1.3-0.2c-0.4,0.2-0.8,0.5-1.1,1.1
		l-0.5,0.8c-0.2,0.4-0.3,0.9-0.3,1.3C50.4,169.3,50.6,169.6,51.1,169.8z"/>
	<path class="st0" d="M51.8,158.4c-0.4-0.3-0.7-0.5-1-0.4c-0.3,0-0.5,0.1-0.7,0.4L45,165c-0.2,0.3-0.3,0.5-0.2,0.8
		c0.1,0.2,0.3,0.5,0.7,0.8l-0.5,0.6l-5.2-4c-0.3-0.3-0.6-0.4-0.7-0.4c-0.2,0-0.3,0-0.4,0.1l-0.6-0.4l1.4-3.4l0.7,0.3
		c-0.2,0.7-0.3,1.3-0.4,1.7c0,0.4,0.1,0.8,0.3,1.1c0.2,0.3,0.6,0.7,1.1,1.1l1.3,1l2.9-3.7l-1.3-1c-0.5-0.4-0.9-0.2-1.4,0.4l-0.5-0.5
		l2.1-2.7l0.5,0.5c-0.6,0.7-0.6,1.3-0.1,1.6l1.3,1l2.8-3.6l-1.8-1.4c-0.5-0.4-0.9-0.7-1.4-0.8c-0.4-0.1-0.7-0.1-1.2,0.2
		c-0.4,0.2-0.8,0.6-1.4,1.2l-0.6-0.4l2.6-3.3l0.6,0.4c0,0.2,0,0.4,0.1,0.6c0.1,0.2,0.4,0.5,0.8,0.8l5.7,4.5L51.8,158.4z"/>
	<path class="st0" d="M33.2,157.4c-0.3-0.3-0.5-0.5-0.7-0.8c-0.1-0.2-0.3-0.3-0.3-0.4c-0.1-0.1-0.3-0.1-0.4,0l-0.5-0.5l1.8-3.2
		l0.7,0.4c-0.4,1-0.7,1.7-0.7,2.2c0,0.5,0.2,1,0.6,1.5c0.3,0.3,0.7,0.5,1.2,0.5c0.4,0,0.8-0.1,1.2-0.5c0.3-0.3,0.4-0.6,0.5-0.9
		c0-0.3,0-0.8-0.2-1.4l-0.8-2.6c-0.2-0.7-0.2-1.4-0.1-2c0.2-0.7,0.5-1.2,1-1.8c0.4-0.5,0.9-0.7,1.5-0.8c0.6-0.1,1.2-0.1,1.8,0.1
		s1.2,0.6,1.7,1.1c0.4,0.4,0.7,0.8,0.8,1.1c0.2,0.3,0.3,0.6,0.4,0.8c0.1,0.2,0.2,0.4,0.3,0.5c0.2,0.2,0.5,0.3,0.8,0.2l0.5,0.5
		l-3.1,3.1l-0.5-0.5c0.7-0.9,1-1.9,1.1-2.7c0.1-0.8-0.1-1.5-0.7-2c-0.2-0.2-0.5-0.4-0.9-0.5c-0.3-0.1-0.7-0.1-1.1,0
		c-0.3,0-0.6,0.2-0.9,0.4c-0.5,0.5-0.7,1.4-0.3,2.5l0.6,2.1c0.5,1.6,0.3,2.8-0.6,3.7c-0.4,0.4-0.9,0.7-1.5,0.8
		c-0.6,0.1-1.2,0.1-1.8-0.1C34.1,158.1,33.6,157.9,33.2,157.4z"/>
	<path class="st0" d="M36.4,144.3c-0.3-0.4-0.6-0.6-0.8-0.7c-0.3-0.1-0.5,0-0.7,0.2l-7.3,5.7l0.2,0.3c0.3,0.4,0.6,0.6,0.9,0.8
		c0.3,0.1,0.6,0.1,1.2,0c0.4-0.1,1.1-0.3,1.9-0.7l0.3,0.7l-3.8,2l-0.4-0.5c0.3-0.3,0.2-0.7-0.2-1.2l-3-3.8c-0.4-0.5-0.7-0.6-1.1-0.4
		l-0.4-0.5l2.9-3.2l0.6,0.5c-0.5,0.7-0.9,1.3-1.1,1.7c-0.2,0.4-0.3,0.8-0.2,1.1c0,0.3,0.2,0.6,0.5,1l0.3,0.3l7.3-5.7
		c0.2-0.2,0.4-0.4,0.4-0.7c0-0.3-0.2-0.5-0.5-0.9l0.6-0.5l3.2,4L36.4,144.3z"/>
	<path class="st0" d="M17.2,135.8c-0.3-0.5-0.4-0.8-0.5-1.1c-0.1-0.2-0.3-0.3-0.5-0.3l-0.4-0.6l2.7-2.5l0.5,0.5
		c-0.5,0.5-0.8,1-1.1,1.4c-0.2,0.4-0.3,0.8-0.4,1.1c0,0.3,0.1,0.7,0.3,1c0.3,0.5,0.7,0.9,1.3,1c0.6,0.2,1.2,0.1,1.8-0.2l5.4-2.9
		c0.5-0.3,0.9-0.7,1.1-1.1c0.2-0.4,0.2-0.9-0.1-1.3c-0.2-0.4-0.6-0.7-1.1-0.8c-0.5-0.1-1,0-1.6,0.3l-1.5,0.8c-0.7,0.4-0.8,1-0.3,1.9
		l-0.6,0.4l-2.1-3.8l0.6-0.4c0.2,0.4,0.5,0.5,1,0.2l4.3-2.3l0.2,0.4l-0.4,1c0.9,0.2,1.6,0.9,2.2,1.9c1.3,2.4,0.5,4.3-2.2,5.8
		l-2.6,1.3c-1.3,0.7-2.5,0.9-3.6,0.5C18.8,137.9,17.9,137.1,17.2,135.8z"/>
	<path class="st0" d="M23.6,125.3c0.3,0,0.5-0.1,0.6-0.5c0.1-0.3,0-0.7-0.2-1.1l0.7-0.3l1.3,3.4l-0.7,0.3c-0.1-0.4-0.3-0.6-0.5-0.8
		c-0.2-0.2-0.5-0.2-0.9-0.1l-10.7,0.5l-0.4-1l8.3-6.9c0.3-0.3,0.5-0.5,0.5-0.7c0-0.2,0-0.5-0.2-0.9l0.7-0.3l1.8,4.8l-0.7,0.3
		c-0.4-1-0.9-1.4-1.3-0.9l-1.2,1l1.3,3.3L23.6,125.3z M21.2,125.3l-1.1-2.8l-3.8,3L21.2,125.3z"/>
	<path class="st0" d="M20.3,116.2l-8.2,1.7c-0.3,0-0.6,0.3-0.7,0.5c-0.1,0.2-0.1,0.6,0,1.1l-0.8,0.2l-0.8-3.9l7.3-4.3L8.8,111
		l-0.8-3.9l0.8-0.2c0.1,0.5,0.2,0.8,0.4,1c0.2,0.2,0.4,0.2,0.8,0.1l8.2-1.8c0.3,0,0.6-0.2,0.7-0.4c0.1-0.2,0.1-0.6,0-1l0.8-0.2
		l1,4.8l-0.8,0.2c-0.1-0.5-0.2-0.8-0.4-1c-0.2-0.2-0.4-0.2-0.8-0.1l-8,1.7l10.5,0.6l0.2,0.9L12,117l8.2-1.7c0.3,0,0.6-0.2,0.7-0.5
		c0.1-0.2,0.1-0.6,0-1l0.8-0.2l0.8,3.5l-0.8,0.2c-0.1-0.5-0.2-0.8-0.4-1C20.9,116.2,20.6,116.2,20.3,116.2z"/>
	<path class="st0" d="M7.1,96.2c0-0.4,0-0.8,0-1c0.1-0.3,0.1-0.4,0-0.5c0-0.1-0.1-0.2-0.3-0.3l0-0.8l3.6-0.9l0.2,0.7
		c-1,0.4-1.7,0.8-2.1,1.1C8.1,94.9,8,95.4,8,95.9c0,0.4,0.1,0.8,0.5,1.2c0.3,0.3,0.7,0.5,1.1,0.5c0.4,0,0.8-0.1,1-0.3
		c0.3-0.2,0.5-0.6,0.8-1.1l1.3-2.4c0.3-0.6,0.8-1.1,1.3-1.5c0.6-0.3,1.3-0.5,1.9-0.6c0.6,0,1.2,0.2,1.7,0.5c0.5,0.4,0.9,0.8,1.2,1.4
		c0.3,0.6,0.4,1.2,0.5,1.9c0,0.5,0,1-0.1,1.4c-0.1,0.3-0.2,0.6-0.3,0.8c-0.1,0.2-0.1,0.4-0.1,0.5c0,0.4,0.1,0.6,0.4,0.7l0,0.8
		l-4.4,0l0-0.8c1.1-0.2,2-0.6,2.7-1.1c0.6-0.5,0.9-1.2,1-1.9c0-0.4-0.1-0.7-0.3-1c-0.2-0.3-0.4-0.5-0.7-0.7c-0.3-0.2-0.6-0.3-1-0.3
		c-0.8,0-1.4,0.6-2,1.6l-1.1,2c-0.8,1.4-1.8,2.2-3,2.2c-0.6,0-1.1-0.2-1.6-0.5c-0.5-0.4-0.9-0.7-1.2-1.3C7.3,97.4,7.1,96.7,7.1,96.2
		z"/>
	<path class="st0" d="M18.3,90.9c0.1-0.5,0-0.8-0.1-1c-0.1-0.2-0.4-0.4-0.7-0.4l-8.3-1.1c-0.3,0-0.6,0.1-0.8,0.2
		c-0.2,0.2-0.3,0.5-0.4,1l-0.8-0.1l0.6-5l0.8,0.1c-0.1,0.5,0,0.8,0.1,1C8.9,85.8,9.2,86,9.5,86l3.6,0.5l0.4-3.5l-3.6-0.5
		c-0.4,0-0.6,0-0.8,0.2c-0.1,0.1-0.3,0.5-0.4,1l-0.7-0.1l0.6-4.9l0.8,0.1c-0.1,0.5,0,0.9,0.1,1.1c0.1,0.2,0.4,0.4,0.7,0.4l8.3,1.1
		c0.4,0,0.6,0,0.8-0.2c0.2-0.2,0.3-0.5,0.4-1l0.8,0.1l-0.6,4.9l-0.8-0.1c0-0.5,0-0.9-0.1-1.1c-0.1-0.2-0.4-0.4-0.7-0.4l-3.8-0.5
		L14,86.6l3.8,0.5c0.3,0,0.6-0.1,0.8-0.2c0.2-0.2,0.3-0.5,0.4-1l0.8,0.1l-0.6,5L18.3,90.9z"/>
	<path class="st0" d="M10,72.1c0.4-1.3,1-2.2,2-2.7c1-0.5,2.2-0.6,3.7-0.1l3,0.8c3,0.8,4.2,2.6,3.4,5.3c-0.4,1.3-1,2.2-2,2.7
		c-1,0.5-2.2,0.6-3.7,0.1l-3-0.8c-1.5-0.4-2.5-1.1-3.1-2C9.8,74.6,9.7,73.4,10,72.1z M21.3,75.1c0.1-0.5,0.1-1-0.3-1.4
		c-0.3-0.4-0.7-0.7-1.3-0.9l-6.4-1.8c-0.6-0.2-1.1-0.1-1.6,0.1c-0.5,0.2-0.8,0.6-0.9,1.1c-0.1,0.5-0.1,1,0.3,1.4
		c0.3,0.4,0.7,0.7,1.3,0.9l6.4,1.8c0.6,0.2,1.1,0.1,1.6-0.1C20.9,76,21.2,75.6,21.3,75.1z"/>
	<path class="st0" d="M22.5,70c0.2-0.4,0.3-0.8,0.2-1c-0.1-0.2-0.2-0.4-0.5-0.5l-7.7-3.3c-0.3-0.1-0.6-0.1-0.8,0
		c-0.2,0.1-0.4,0.4-0.6,0.8l-0.8-0.3l2-4.8c0.5-1.2,1.2-2,2-2.4c0.9-0.4,1.8-0.3,3,0.2c1.2,0.5,1.9,1.2,2.3,2s0.2,1.9-0.3,3.1
		L21,64.3L20.2,64l0.2-0.5c0.2-0.4,0.1-0.9-0.1-1.3c-0.2-0.4-0.7-0.8-1.3-1l-1.5-0.6c-0.6-0.2-1.1-0.3-1.6-0.2
		c-0.5,0.1-0.8,0.4-1,0.9l-0.6,1.3l8.6,3.6c0.3,0.1,0.6,0.2,0.8,0c0.2-0.1,0.4-0.4,0.6-0.8l0.8,0.3l-2,4.7L22.5,70z"/>
	<path class="st0" d="M28.5,46.1L27.2,45l5.6-6.8l1.3,1.1L28.5,46.1z"/>
</g>
</svg>
