<svg width="335" height="61" viewBox="0 0 335 61" fill="none" xmlns="http://www.w3.org/2000/svg">
<path d="M17.5091 59.9828C18.4828 59.9828 19.4566 60.0828 20.4304 60.1828C22.1532 60.2828 23.9509 60.3828 25.7486 60.3828C31.8159 60.3828 47.8456 60.3828 68.5194 60.3828H75.3358C131.365 60.3828 215.933 60.2828 231.738 60.2828H242.524C264.396 60.2828 315.631 60.1828 317.579 60.0828C318.028 60.0828 318.478 60.0828 318.927 60.0828H319.002C319.676 60.0828 320.5 60.0828 321.324 59.9828C322.223 59.8828 323.122 59.7828 324.021 59.5828C324.47 59.4828 324.845 59.2828 325.219 59.0828C325.519 58.8828 325.893 58.7828 326.193 58.6828C327.541 58.3828 328.515 57.3828 329.414 56.4828L329.863 56.0828C330.687 55.2828 331.661 54.2828 332.26 52.9828C334.507 48.0828 335.331 43.3828 334.882 38.3828C334.657 36.2828 334.208 33.5828 332.485 31.3828L331.886 30.5828L331.961 30.3828C331.961 30.1828 332.035 29.9828 332.035 29.8828C332.035 29.7828 332.11 29.5828 332.185 29.4828L332.71 27.9828C333.084 26.7828 333.534 25.6828 333.908 24.4828C334.058 23.9828 334.208 23.3828 334.208 22.6828C334.432 18.4828 334.133 15.1828 333.234 12.1828C332.56 9.78284 331.511 7.78284 330.163 6.38284C328.29 4.28284 326.118 2.78284 323.721 1.88284C323.421 1.78284 323.122 1.68284 322.897 1.48284C322.223 1.18284 321.624 0.882843 320.875 0.782843C319.601 0.582843 267.168 0.482843 198.704 0.382843C164.248 0.282843 134.436 0.282843 133.537 0.182843C133.088 0.182843 132.638 0.282843 132.264 0.282843C131.964 0.382843 131.664 0.382843 131.44 0.382843C112.863 0.382843 56.235 0.482843 35.3365 0.382843C34.138 0.382843 33.0144 0.382843 31.8159 0.382843H31.4414C28.0707 0.482843 24.625 0.482843 21.1794 0.0828427C19.6813 -0.117157 18.1083 0.0828427 16.76 0.282843C15.4866 0.382843 14.2881 0.682843 13.1646 1.08284C10.5429 1.98284 8.59536 3.08284 6.94745 4.48284C5.52425 5.48284 4.55048 6.78284 3.87634 7.78284C2.30333 10.1828 1.70409 12.9828 1.10485 15.4828C1.02994 15.7828 0.95504 16.0828 0.95504 16.3828C0.95504 16.9828 0.95504 17.5828 0.880135 18.1828C0.80523 20.6828 0.655419 23.2828 1.62919 25.8828C2.07862 26.9828 2.45314 28.2828 2.82767 29.3828L3.12729 30.3828L2.97748 30.5828C1.47938 32.4828 0.131084 34.6828 0.131084 37.9828C0.131084 38.5828 0.131084 39.2828 0.0561788 39.8828C-0.0187263 40.9828 -0.0187263 42.1828 0.0561788 43.3828C0.280894 46.4828 1.25466 49.3828 2.22843 51.6828C2.22843 51.7828 2.30333 51.8828 2.30333 51.9828C2.45314 52.3828 2.60295 52.8828 2.90257 53.1828C3.42691 53.9828 4.02615 54.7828 4.70029 55.4828L5.14972 55.9828C6.12349 56.9828 7.32197 58.0828 8.74517 58.4828C9.1946 58.5828 9.71893 58.7828 10.2433 59.0828C11.217 59.5828 12.1908 59.6828 13.0897 59.7828H13.614C14.438 59.8828 15.187 59.8828 15.9361 59.8828C16.011 59.8828 16.0859 59.8828 16.2357 59.8828C16.76 59.9828 17.1345 59.9828 17.5091 59.9828ZM15.2619 55.0828C14.5129 55.0828 13.6889 54.8828 12.8649 54.5828C12.4904 54.4828 12.1159 54.3828 11.7414 54.2828L11.1421 54.1828C10.3931 53.9828 9.64403 53.8828 8.96988 53.5828C7.99612 53.0828 7.09726 52.1828 6.2733 50.7828C4.92501 48.1828 4.10105 45.6828 3.80143 42.9828C3.65162 41.4828 3.65162 39.8828 3.80143 37.5828C3.80143 37.1828 4.02615 36.5828 4.47558 35.8828C4.70029 35.4828 4.99991 35.0828 5.37444 34.5828L5.59915 34.2828L5.82387 34.5828C5.97368 34.7828 6.04858 34.9828 6.1984 35.1828L6.2733 35.2828V35.4828C6.12349 36.7828 6.42311 37.7828 7.09726 38.4828C7.92121 39.2828 8.96988 39.3828 9.94365 38.6828C10.8425 38.0828 11.4418 36.6828 11.3668 35.3828C11.217 34.0828 10.6178 33.2828 9.49422 32.8828H9.41931L9.34441 32.7828C9.11969 32.3828 8.89498 31.8828 8.67026 31.4828L8.52045 31.0828L8.82007 30.8828C8.96988 30.7828 9.11969 30.7828 9.1946 30.8828C9.71893 31.0828 10.3182 30.8828 10.8425 30.3828C11.4417 29.7828 11.8912 28.6828 11.8912 27.5828C11.8912 25.9828 11.2919 24.5828 10.2433 23.7828C9.49422 23.1828 8.67026 23.1828 7.92121 23.6828C7.24707 24.1828 6.87254 25.0828 6.79764 26.1828C6.79764 26.4828 6.72273 26.6828 6.49802 26.9828L6.2733 27.2828L6.04858 26.6828C5.89877 26.2828 5.67406 25.7828 5.52425 25.2828C5.29953 24.6828 4.99991 23.6828 4.92501 22.6828V22.0828C4.7752 19.1828 4.55048 16.4828 5.74896 14.0828C7.17216 11.1828 8.52045 9.08284 10.6927 7.88284C12.8649 6.78284 15.0372 5.98284 17.5091 5.58284C17.8087 5.58284 18.1083 5.58284 18.4079 5.58284C18.7075 5.58284 19.0072 5.58284 19.2319 5.58284C19.5315 5.58284 19.8311 5.48284 20.1307 5.48284C20.2805 5.48284 20.5053 5.38284 20.6551 5.38284H20.8049C20.9547 5.38284 21.1045 5.38284 21.1794 5.38284C22.0034 5.38284 22.9022 5.38284 23.7262 5.38284C23.876 5.38284 23.9509 5.38284 24.1007 5.38284C24.1756 5.38284 24.2505 5.38284 24.3254 5.38284C47.6209 5.38284 107.096 5.38284 130.391 5.38284H132.114V5.48284H133.612C172.338 5.48284 220.352 5.58284 240.876 5.68284H252.711C252.861 5.68284 253.011 5.68284 253.16 5.68284H253.46H253.685C285.669 5.78284 317.054 5.78284 318.103 5.88284C320.5 6.18284 322.897 7.08284 325.369 8.68284C326.343 9.28284 327.092 10.2828 327.916 11.5828C328.74 12.8828 329.564 14.2828 329.938 15.9828V16.0828C330.088 16.6828 330.163 17.1828 330.163 17.6828V17.8828C330.163 19.5828 330.163 21.3828 330.013 23.0828C329.938 23.8828 329.713 24.6828 329.414 25.4828L329.264 25.9828C329.189 26.1828 329.114 26.4828 328.964 26.6828L328.815 27.0828L328.29 26.5828V26.3828C328.14 24.3828 327.466 23.3828 326.343 23.1828C325.144 22.9828 323.871 24.1828 323.421 25.8828C322.972 27.5828 323.346 29.3828 324.47 30.1828C324.695 30.3828 325.294 30.8828 325.893 30.5828C325.968 30.5828 326.118 30.4828 326.268 30.5828L326.567 30.7828L326.418 31.1828C326.193 31.5828 325.968 32.0828 325.743 32.4828L325.669 32.6828H325.519C324.845 32.9828 324.021 33.4828 323.721 34.8828C323.496 36.0828 323.871 37.2828 324.62 38.1828C325.519 39.0828 326.567 39.1828 327.541 38.5828C328.44 37.9828 328.889 36.7828 328.665 35.2828V35.0828L328.74 34.9828C328.889 34.7828 328.964 34.5828 329.114 34.3828L329.339 34.0828L329.564 34.3828C330.313 35.3828 330.837 36.3828 331.137 37.4828V37.6828C331.436 42.6828 330.687 46.5828 328.964 50.0828C327.991 51.9828 326.867 53.1828 325.594 53.6828C325.144 53.8828 324.62 53.9828 324.096 54.0828C323.796 54.1828 323.421 54.1828 323.122 54.2828C322.747 54.3828 322.448 54.4828 322.073 54.5828L321.699 54.6828C321.624 54.6828 321.549 54.7828 321.474 54.7828C321.399 54.7828 321.324 54.8828 321.249 54.8828C319.751 55.0828 300.725 55.2828 232.487 55.2828C200.128 55.2828 156.833 55.2828 99.0807 55.0828H95.8598C91.4404 55.0828 88.7438 55.0828 87.9947 55.0828H87.77C75.0362 55.0828 62.2274 55.0828 49.4935 55.0828C41.5536 55.0828 33.6137 55.0828 25.6737 55.0828C24.5501 55.0828 23.3517 55.1828 22.303 55.1828C21.2543 55.2828 20.2056 55.2828 19.157 55.2828C18.6326 55.2828 18.0334 55.1828 17.4342 55.1828H17.2843C16.6851 55.1828 16.011 55.0828 15.2619 55.0828Z" fill="#ACA59B"/>
<path d="M17.3603 31.4828C17.3603 29.5828 16.1618 27.8828 14.8136 27.8828C14.2143 27.8828 13.69 28.1828 13.3155 28.6828C12.7911 29.3828 12.5664 30.3828 12.5664 31.4828C12.5664 33.3828 13.6151 34.8828 14.9634 34.8828C15.6375 34.8828 16.1618 34.5828 16.6113 33.9828C17.0607 33.3828 17.2854 32.4828 17.3603 31.4828Z" fill="#ACA59B"/>
<path d="M322.298 32.1824C322.448 30.7824 322.073 28.8824 321.024 28.2824C320.725 28.0824 320.35 27.9824 319.976 27.9824C319.901 27.9824 319.751 27.9824 319.676 27.9824C318.478 28.1824 317.504 29.7824 317.504 31.4824C317.504 32.5824 317.804 33.5824 318.403 34.2824C318.927 34.8824 319.601 35.0824 320.35 34.9824C321.324 34.6824 322.073 33.4824 322.298 32.1824Z" fill="#ACA59B"/>
<path d="M332.035 37.6822V37.3822L331.96 37.1822C331.66 35.9822 331.061 34.7822 330.237 33.6822L329.413 32.5822L328.589 33.6822C328.439 33.8822 328.29 34.0822 328.215 34.2822L327.915 34.7822L327.99 35.4822C328.065 36.1822 327.99 37.0822 327.316 37.5822C326.567 38.0822 325.893 37.9822 325.219 37.2822C324.844 36.8822 324.395 36.1822 324.619 35.1822C324.769 34.3822 325.219 34.0822 325.668 33.8822H326.117L326.417 33.2822C326.642 32.8822 326.866 32.3822 327.091 31.9822L327.84 30.4822L326.642 29.7822C326.117 29.4822 325.743 29.6822 325.593 29.6822C325.518 29.6822 325.293 29.6822 324.844 29.3822C324.095 28.7822 323.87 27.5822 324.17 26.3822C324.469 25.1822 325.368 24.2822 326.192 24.3822C326.717 24.4822 327.241 24.7822 327.391 26.5822L327.541 27.2822L329.039 28.7822L329.638 27.2822C329.788 26.9822 329.863 26.6822 329.938 26.4822L330.087 25.9822C330.387 25.0822 330.687 24.1822 330.762 23.2822C330.911 21.4822 330.911 19.6822 330.911 17.8822V17.6822C330.911 17.0822 330.762 16.3822 330.612 15.7822V15.6822C330.237 13.7822 329.338 12.2822 328.439 10.8822C327.541 9.48223 326.792 8.38223 325.668 7.68223C323.121 6.08223 320.724 5.18223 318.103 4.78223C317.129 4.68223 292.71 4.68223 253.684 4.58223H253.31H253.085C252.935 4.58223 252.86 4.58223 252.71 4.58223H240.875C220.351 4.48223 172.337 4.38223 133.462 4.38223V4.28223H130.241C106.945 4.28223 47.4705 4.28223 24.175 4.28223C24.1001 4.28223 24.0252 4.28223 23.8754 4.28223C23.8005 4.28223 23.7256 4.28223 23.5758 4.28223C22.7518 4.28223 21.853 4.28223 21.029 4.28223C20.9541 4.28223 20.8792 4.28223 20.8043 4.28223H20.5796H20.4298C20.2051 4.28223 20.0553 4.38223 19.8305 4.38223C19.5309 4.38223 19.3062 4.48223 19.0066 4.48223C18.7819 4.48223 18.4823 4.48223 18.2575 4.48223C17.9579 4.48223 17.5834 4.48223 17.2089 4.48223C14.737 4.88223 12.4149 5.68223 10.2427 6.88223C7.84574 8.08223 6.42254 10.3822 4.92444 13.4822C3.65105 16.1822 3.80086 19.1822 4.02558 22.1822V22.7822C4.10048 23.8822 4.4001 24.9822 4.62482 25.7822C4.77463 26.3822 4.99934 26.8822 5.22406 27.2822L5.8233 28.7822L6.87197 27.7822C7.3963 27.2822 7.47121 26.5822 7.54611 26.1822C7.54611 25.4822 7.84574 24.9822 8.22026 24.6822C8.66969 24.3822 9.19403 24.3822 9.71836 24.7822C10.5423 25.3822 10.9168 26.3822 10.9168 27.5822C10.9168 28.2822 10.6172 29.0822 10.2427 29.4822C9.94308 29.7822 9.64346 29.8822 9.34384 29.7822C9.19403 29.7822 8.89441 29.5822 8.44498 29.8822L7.24649 30.5822L7.99555 32.0822C8.22026 32.5822 8.44498 32.9822 8.66969 33.3822L8.89441 33.7822L9.26893 33.8822C10.3176 34.1822 10.4674 34.9822 10.5423 35.4822C10.6172 36.2822 10.2427 37.2822 9.64346 37.6822C8.89441 38.1822 8.22026 38.0822 7.69593 37.5822C7.2465 37.1822 7.09668 36.5822 7.24649 35.6822L7.3214 34.9822L6.87197 34.2822C6.72216 34.0822 6.64725 33.8822 6.49744 33.6822L5.67349 32.4822L4.84953 33.6822C4.47501 34.1822 4.17539 34.6822 3.87577 35.0822C3.35143 36.0822 3.05181 36.7822 3.05181 37.3822C2.902 39.6822 2.902 41.3822 3.05181 42.9822C3.35143 45.7822 4.17539 48.4822 5.67349 51.2822C6.57235 52.9822 7.54612 53.9822 8.7446 54.5822C9.49365 54.8822 10.2427 55.0822 10.9917 55.2822L11.591 55.3822C11.9655 55.4822 12.34 55.5822 12.7146 55.6822C13.5385 55.8822 14.3625 56.1822 15.2613 56.1822C15.9355 56.1822 16.6096 56.2822 17.2838 56.2822H17.4336C18.0328 56.3822 18.6321 56.3822 19.2313 56.3822C20.28 56.3822 21.4036 56.2822 22.4522 56.2822C23.5758 56.1822 24.6994 56.1822 25.823 56.1822C33.7629 56.1822 41.7028 56.1822 49.6428 56.1822C62.3766 56.1822 75.1854 56.2822 87.9193 56.1822H87.9942C88.7432 56.1822 91.4398 56.1822 95.8592 56.1822H99.0801C152.862 56.2822 197.281 56.3822 231.887 56.3822C288.89 56.3822 319.376 56.2822 321.398 55.9822C321.548 55.9822 321.623 55.8822 321.773 55.8822C321.848 55.8822 321.923 55.7822 321.998 55.7822L322.372 55.6822C322.672 55.5822 322.971 55.4822 323.346 55.3822C323.646 55.2822 323.945 55.2822 324.32 55.1822C324.844 55.0822 325.443 54.9822 325.968 54.7822C327.466 54.1822 328.664 52.8822 329.788 50.6822C331.585 47.0822 332.335 42.8822 332.035 37.6822Z" fill="#786B55"/>
</svg>
